<?xml version="1.0" encoding="UTF-8"?>
<svg xmlns="http://www.w3.org/2000/svg" version="1.1" viewBox="0 0 132 40">
  <defs>
    <style>
      .cls-1 {
        fill: #ffdb1e;
      }

      .cls-2 {
        fill: #0a140c;
      }

      .cls-3, .cls-4 {
        fill: #fff;
      }

      .cls-5 {
        fill: #ffe600;
      }

      .cls-4 {
        stroke: #ffdb1e;
      }
    </style>
  </defs>
  <!-- Generator: Adobe Illustrator 28.7.1, SVG Export Plug-In . SVG Version: 1.2.0 Build 142)  -->
  <g>
    <g id="Layer_1">
      <path class="cls-1" d="M35.1,8.8c4.8,11.8,0,18.2-4.1,21.7,1,3.5-3,4.2-4.5,2.5-4.5,1.5-13.5,1.5-20-5-3.5-3.5-.8-11.3,8.5-16.5,8-4.5,16-7,20.1-2.7Z"/>
      <path class="cls-4" d="M15,11.5c6.8-4.5,15-6.4,18.4-3.5,5.1,4.5-10.9,14.6-16.9,17-6.5,2.6-3,8.5-6.5,8.5s-2.5-4-5.2-7.8c-1.6-2.2,2.3-9.1,10.2-14.2Z"/>
      <path class="cls-5" d="M29.5,8.8c4.6,1.2-.4,5.7-4.3,8.5-3.7,2.7-6.6,4.2-7.9,4.8-.4.2-1.6-2.3-1.6-1s-.7,2.2-.9,2.3c-1.4.5-4.2,1.3-5.8,1.3-3.5,0-1.9-4.8,3-9.1.9-.8,1.5-.6,2.3-.6-.5-.8-.5-.9.4-1.5,4.2-2.8,9.4-4.7,11.6-5,.4,0,.8.4.8.6.4-.1,2.1-.4,2.5-.3h0Z"/>
      <path class="cls-3" d="M15.3,16.5c1-.7,1.6-1,2.1-2.5.6.1.8,0,1.3-.7.3.5,1.7.6,2.5.7-.7.5-1.1.9-1.5,2.1-1.5-.6-3.2-.3-4.4.4Z"/>
      <path class="cls-2" d="M49.2,9.2v22.2h-4.5V9.2h4.5ZM56.1,18.6v3.7h-8.1v-3.7h8.1ZM57,9.2v3.7h-9v-3.7h9ZM59.6,9.2h7.2c1.5,0,2.8.3,3.8.8,1,.5,1.8,1.2,2.4,2.2.6,1.1.9,2.4.9,3.7,0,1.2-.2,2.2-.6,3.1-.3.9-.7,1.6-1.4,2.1-.6.6-1.3.9-2.1,1.4l-1.4.7h-5.8v-3.7h4c.5,0,1.1,0,1.6-.4.4-.3.6-.6.9-1.1.2-.6.3-1.2.3-1.8,0-.6,0-1.2-.3-1.8-.2-.5-.5-.9-.9-1.1-.3-.3-.8-.5-1.4-.5h-2.8v18.5h-4.4V9.2h0ZM69.7,31.4l-4-9.9h4.6l4.2,9.7v.2h-4.8ZM89.6,27.7v3.7h-9.7v-3.7h9.7ZM81.4,9.2v22.2h-4.5V9.2h4.6,0ZM88.4,18.3v3.5h-8.4v-3.5h8.4ZM89.6,9.2v3.7h-9.7v-3.7h9.7ZM101.7,25.6c0-.4,0-.7-.2-1,0-.4-.2-.6-.5-.9l-.9-.9-1.7-.7-2.4-1.1-2-1.4c-.6-.5-1.2-1.1-1.6-1.8-.3-.8-.5-1.6-.5-2.5,0-.9,0-1.8.5-2.5.3-.8.8-1.5,1.5-2,.6-.5,1.4-.9,2.2-1.2,2.2-.7,4.5-.5,6.5.5,1.1.6,1.8,1.4,2.5,2.4.6.9.9,2.2.9,3.5h-4.6c0-.6,0-1.1-.2-1.7-.2-.5-.5-.9-.9-1.1-.4-.3-.9-.5-1.5-.5s-1,.2-1.4.4c-.4.2-.6.6-.9.9l-.2,1.3c0,.4,0,.7.3,1l.7.7c.8.5,1.7.9,2.6,1.3l2.7,1.3c.7.5,1.3,1,1.8,1.7.6.6.9,1.2,1.3,1.8.6,1.7.5,3.5,0,5.1-.4.7-.8,1.4-1.4,1.9-.7.6-1.5,1-2.3,1.3-1.8.5-.9,1.7-2.8,1.7s-1.2-1.4-2.9-1.7c-.9-.3-1.8-.7-2.5-1.3-.7-.6-1.3-1.4-1.7-2.3-.4-.9-.6-2-.6-3.2h4.5c0,.6,0,1.2.2,1.7,0,.5.3.9.6,1.2.3.2.6.5,1,.6.5.2.9.2,1.4.2s1.1,0,1.5-.3.6-.6.7-.9c.2-.4.3-.8.3-1.3h0ZM121.5,18.2v3.7h-9.2v-3.7h9.2ZM113.6,9.2v22.2h-4.4V9.2h4.4ZM124.7,9.2v22.2h-4.4V9.2h4.4Z"/>
    </g>
  </g>
</svg>